<svg width="116" height="114" viewBox="0 0 116 114" fill="none" xmlns="http://www.w3.org/2000/svg">
<g id="Circle">
<path id="Vector" d="M50.5058 102.944L48.4734 114L44.3578 113.253C43.5448 113.104 42.9351 112.855 42.427 112.506C41.9697 112.157 41.614 111.759 41.4616 111.261C41.2583 110.763 41.2583 110.265 41.36 109.717C41.4616 109.269 41.614 108.87 41.8173 108.621C42.0205 108.372 42.3254 108.123 42.6302 107.974C42.9351 107.825 43.2908 107.775 43.6464 107.725V107.625C43.2908 107.526 42.9351 107.376 42.6302 107.078C42.3254 106.779 42.0713 106.43 41.9189 105.982C41.7664 105.534 41.7156 105.036 41.8173 104.488C41.9189 103.94 42.1729 103.442 42.4778 103.044C42.8335 102.645 43.2908 102.346 43.9005 102.197C44.5102 102.048 45.2724 102.048 46.1361 102.197L50.5058 102.944ZM47.6604 108.92L45.374 108.522C44.9675 108.472 44.6118 108.472 44.307 108.572C44.0021 108.671 43.6972 108.821 43.4432 109.07C43.1891 109.319 43.0875 109.568 42.9859 109.966C42.8843 110.414 42.9859 110.813 43.2908 111.211C43.5956 111.61 44.0529 111.809 44.7134 111.958L47.0507 112.357L47.6604 108.92ZM48.5242 104.04L46.0853 103.591C45.2724 103.442 44.6626 103.492 44.2561 103.741C43.8497 103.99 43.5956 104.338 43.494 104.787C43.4432 105.135 43.4432 105.484 43.5956 105.783C43.6972 106.082 43.9513 106.38 44.2561 106.629C44.561 106.878 44.9167 107.028 45.374 107.078L47.9145 107.526L48.5242 104.04Z" fill="#F58A07"/>
<path id="Vector_2" d="M36.7359 99.1592C37.4981 99.458 38.1078 99.9062 38.5143 100.504C38.9208 101.052 39.1748 101.699 39.2256 102.446C39.2764 103.193 39.124 103.94 38.7683 104.737C38.4127 105.534 37.9554 106.181 37.3965 106.629C36.8375 107.127 36.177 107.426 35.5165 107.526C34.8051 107.625 34.0938 107.526 33.3824 107.227C32.9251 107.028 32.5186 106.779 32.163 106.48C31.8073 106.181 31.5533 105.783 31.35 105.335C31.1468 104.886 31.0451 104.388 31.096 103.791C31.096 103.193 31.2992 102.595 31.6041 101.898L31.8581 101.35L38.1586 103.94L37.6505 105.086L32.8743 103.093C32.7219 103.492 32.6203 103.89 32.6711 104.239C32.7219 104.637 32.8235 104.936 33.0268 105.235C33.23 105.534 33.5349 105.783 33.9413 105.932C34.3986 106.131 34.8051 106.181 35.2116 106.082C35.6181 106.032 35.9738 105.833 36.2786 105.584C36.5835 105.335 36.8375 104.986 36.99 104.637L37.3965 103.741C37.5997 103.243 37.7013 102.745 37.7013 102.297C37.6505 101.848 37.5489 101.45 37.2948 101.151C37.0408 100.852 36.6851 100.554 36.2278 100.354C35.923 100.255 35.6689 100.155 35.364 100.155C35.11 100.155 34.8051 100.155 34.6019 100.255C34.3986 100.354 34.1446 100.504 33.9413 100.703L32.5695 99.8564C32.8743 99.5078 33.23 99.209 33.6873 99.0097C34.1446 98.8105 34.6019 98.7109 35.11 98.7607C35.6181 98.8105 36.177 98.9101 36.7359 99.1592Z" fill="#F58A07"/>
<path id="Vector_3" d="M22.2549 98.3622L23.6776 99.0096C23.6268 99.2088 23.576 99.408 23.6268 99.6072C23.6268 99.8064 23.7284 100.055 23.8301 100.255C23.9825 100.454 24.1857 100.703 24.4398 100.852C24.8463 101.101 25.2019 101.251 25.6084 101.251C25.9641 101.251 26.269 101.101 26.4722 100.852C26.6246 100.603 26.6754 100.354 26.6246 100.105C26.5738 99.8562 26.3706 99.5574 26.0149 99.2088L25.0495 98.2127C24.4906 97.6151 24.1857 97.0673 24.0841 96.5693C23.9825 96.0713 24.0841 95.5235 24.4398 95.0255C24.7446 94.627 25.1003 94.3282 25.6084 94.1788C26.0657 94.0294 26.5738 93.9796 27.1835 94.129C27.7425 94.2286 28.3014 94.4776 28.9111 94.876C29.7241 95.4239 30.2322 96.0215 30.4862 96.6689C30.7403 97.3163 30.7403 98.0135 30.3846 98.7108L28.9111 98.0135C29.0635 97.6151 29.0635 97.2665 28.9619 96.9179C28.8095 96.5693 28.5554 96.2705 28.1489 95.9717C27.6916 95.6729 27.2852 95.5235 26.8787 95.5235C26.4722 95.5235 26.1673 95.6729 26.0149 95.9219C25.8625 96.1211 25.8117 96.3701 25.8625 96.6191C25.9133 96.8681 26.1165 97.1669 26.3706 97.4657L27.3868 98.5116C27.9457 99.1092 28.2506 99.657 28.3522 100.205C28.4538 100.753 28.3014 101.251 27.9457 101.749C27.6408 102.147 27.2852 102.446 26.8279 102.595C26.3706 102.745 25.8625 102.745 25.3544 102.645C24.8463 102.545 24.2873 102.296 23.7792 101.948C23.0171 101.45 22.509 100.852 22.3057 100.255C22.0009 99.657 22.0009 99.0096 22.2549 98.3622Z" fill="#F58A07"/>
<path id="Vector_4" d="M16.1577 98.5111L14.9382 97.3657L20.5782 91.6385C20.7814 91.3895 20.9338 91.1903 20.9847 91.0409C21.0355 90.8417 21.0355 90.6923 20.9338 90.5429C20.883 90.3934 20.7814 90.244 20.629 90.1444C20.5274 90.0448 20.4257 89.995 20.3749 89.9452C20.3241 89.8954 20.2225 89.8456 20.1717 89.7958L20.9338 88.6006C21.0355 88.6504 21.1371 88.7002 21.2895 88.7998C21.442 88.8994 21.6452 89.0488 21.7976 89.1982C22.1025 89.497 22.3565 89.8456 22.509 90.1942C22.6614 90.5429 22.7122 90.9413 22.6614 91.3397C22.6106 91.7381 22.3565 92.1365 22.0009 92.4851L16.1577 98.5111ZM15.0907 94.7262L16.0052 93.78L19.3587 96.9673L18.4441 97.9135L15.0907 94.7262Z" fill="#F58A07"/>
<path id="Vector_5" d="M15.3449 80.8316C15.5989 81.2798 15.7514 81.7778 15.8022 82.226C15.853 82.724 15.7514 83.1224 15.5481 83.5208C15.3449 83.9193 14.9892 84.2679 14.4811 84.5667C14.0746 84.8157 13.6681 84.9153 13.3125 84.9153C12.9568 84.9153 12.6011 84.8157 12.2963 84.6165C11.9914 84.4173 11.6865 84.2181 11.4325 83.9193C11.1784 83.6204 10.8736 83.3216 10.6703 83.0228C10.3655 82.6244 10.1114 82.2758 9.90817 82.0268C9.70493 81.7778 9.5525 81.6284 9.40007 81.5288C9.24764 81.4292 9.09521 81.479 8.89196 81.5786H8.84115C8.43467 81.8276 8.18062 82.1264 8.079 82.475C7.97738 82.8236 8.079 83.2718 8.33305 83.7201C8.63791 84.2181 8.94277 84.5169 9.29845 84.6663C9.65412 84.8157 10.0098 84.8655 10.3655 84.8157L10.8228 86.3097C10.2638 86.4093 9.75574 86.3595 9.29845 86.2101C8.84115 86.0607 8.43467 85.8117 8.079 85.5129C7.72333 85.1643 7.41846 84.8157 7.16441 84.3675C7.01198 84.0687 6.85955 83.7699 6.70712 83.3714C6.6055 83.0228 6.55469 82.6244 6.55469 82.226C6.55469 81.8276 6.70712 81.4292 6.91036 81.0806C7.1136 80.732 7.52008 80.3833 8.079 80.0347L13.0076 77.2458L13.8206 78.6403L12.8044 79.2379L12.8552 79.2877C13.1092 79.2877 13.3633 79.2877 13.6681 79.3873C13.973 79.4869 14.2271 79.6363 14.5319 79.8355C14.8368 80.1343 15.0908 80.4331 15.3449 80.8316ZM13.973 81.1802C13.7189 80.7818 13.4649 80.4829 13.16 80.2837C12.8552 80.0845 12.4995 79.9849 12.1438 79.9849C11.7882 79.9849 11.4833 80.0845 11.1784 80.2339L10.213 80.7818C10.3147 80.7818 10.4163 80.8814 10.5179 80.981C10.6195 81.0806 10.7719 81.23 10.9244 81.4292C11.0768 81.5786 11.1784 81.7778 11.3309 81.9272C11.4325 82.0766 11.5849 82.226 11.6357 82.3256C11.839 82.5746 12.0422 82.8236 12.2454 82.973C12.4487 83.1722 12.7027 83.2718 12.906 83.3216C13.16 83.3714 13.4141 83.3216 13.6681 83.1722C14.0238 82.973 14.2271 82.6742 14.2271 82.3256C14.3287 81.977 14.2271 81.5786 13.973 81.1802Z" fill="#F58A07"/>
<path id="Vector_6" d="M14.0749 70.5226C14.2781 71.1701 14.3797 71.7179 14.3289 72.2657C14.3289 72.7637 14.2273 73.2119 14.0241 73.6103C13.8208 74.0088 13.6176 74.3076 13.3127 74.5566L12.2965 73.4111C12.3981 73.2617 12.5506 73.1123 12.6522 72.8633C12.7538 72.6641 12.8554 72.3653 12.9062 72.0665C12.957 71.7677 12.9062 71.3693 12.7538 70.9709C12.5506 70.3732 12.2457 69.925 11.8392 69.6262C11.4327 69.3274 10.8738 69.2776 10.2641 69.4768L8.63816 69.9748L8.68897 70.0744C8.89222 70.1242 9.14627 70.174 9.40032 70.2736C9.65437 70.3732 9.90842 70.5724 10.2133 70.8215C10.5181 71.0705 10.6706 71.4689 10.823 71.9669C11.0262 72.6143 11.0771 73.2119 10.9246 73.8095C10.7722 74.4072 10.4673 74.955 9.95923 75.453C9.45113 75.951 8.79059 76.2996 7.92682 76.5984C7.06304 76.8474 6.25008 76.947 5.53873 76.8474C4.82739 76.7478 4.21766 76.4988 3.70956 76.1004C3.20146 75.702 2.84579 75.1542 2.64254 74.5068C2.49011 74.0088 2.4393 73.5605 2.49011 73.2119C2.54092 72.8633 2.69335 72.5645 2.84579 72.3155C2.99822 72.0665 3.15065 71.8673 3.30308 71.7179L3.25227 71.6183L1.9312 72.0167L1.4231 70.4728L9.8068 67.8832C10.5181 67.684 11.1279 67.6342 11.6868 67.8334C12.2457 68.0326 12.703 68.3314 13.1095 68.8294C13.516 69.3274 13.8716 69.8254 14.0749 70.5226ZM9.40032 71.9669C9.24789 71.5187 9.04465 71.1701 8.68897 70.9211C8.3333 70.672 7.97763 70.5226 7.52034 70.5226C7.06304 70.4728 6.55494 70.5724 5.99603 70.7218C5.43711 70.8713 4.97982 71.1203 4.62415 71.4191C4.26847 71.7179 4.01442 72.0665 3.86199 72.4151C3.70956 72.8135 3.70956 73.2119 3.86199 73.6601C4.01442 74.1084 4.26847 74.5068 4.62415 74.706C4.97982 74.955 5.3863 75.0546 5.8436 75.1044C6.30089 75.1542 6.80899 75.0546 7.31709 74.9052C7.87601 74.7558 8.28249 74.5068 8.63816 74.208C8.99384 73.9092 9.24789 73.5605 9.34951 73.2119C9.55275 72.8633 9.55275 72.4649 9.40032 71.9669Z" fill="#F58A07"/>
<path id="Vector_7" d="M8.99326 61.6084C9.09488 62.455 8.94245 63.1523 8.63758 63.7997C8.33272 64.4471 7.87543 64.9451 7.21489 65.2937C6.60517 65.6922 5.84301 65.8914 4.92843 65.991C4.06465 66.0906 3.25169 65.991 2.59115 65.6921C1.87981 65.4431 1.3209 65.0447 0.914412 64.4969C0.50793 63.9491 0.253878 63.3017 0.152257 62.5049C0.101447 62.0068 0.152257 61.5586 0.253878 61.1104C0.355499 60.6622 0.60955 60.214 0.914412 59.8654C1.21927 59.467 1.62576 59.1681 2.18467 58.9191C2.69277 58.6701 3.35331 58.5207 4.11546 58.4211L4.72519 58.3713L5.33491 65.0447L4.06465 65.1443L3.60736 60.0646C3.15007 60.1144 2.79439 60.214 2.48953 60.4132C2.18467 60.6124 1.93062 60.9112 1.77819 61.21C1.62576 61.5088 1.52414 61.9072 1.57495 62.3554C1.62576 62.8037 1.77819 63.2021 2.03224 63.5009C2.28629 63.7997 2.59115 64.0487 2.99764 64.1981C3.40412 64.3475 3.8106 64.3973 4.21708 64.3475L5.18248 64.2479C5.74139 64.1981 6.2495 64.0487 6.60517 63.7997C6.96084 63.5507 7.2657 63.2519 7.46895 62.9033C7.62138 62.5049 7.723 62.1064 7.67219 61.6084C7.62138 61.3096 7.57057 61.0108 7.46895 60.7618C7.36732 60.5128 7.21489 60.3136 7.01165 60.1144C6.80841 59.965 6.55436 59.8156 6.30031 59.7658L6.45274 58.1721C6.91003 58.2717 7.36732 58.4211 7.723 58.7199C8.07867 59.0187 8.38353 59.3674 8.63758 59.8654C8.89164 60.3634 8.94245 61.0108 8.99326 61.6084Z" fill="#F58A07"/>
<path id="Vector_8" d="M3.65834 53.4901L8.73938 54.0878L8.53614 55.7312L0 54.7352L0.203241 53.1913L1.57512 53.3407V53.2411C1.16864 52.9921 0.812965 52.6435 0.609724 52.1953C0.406483 51.7471 0.304862 51.1993 0.406483 50.6017C0.457293 50.0538 0.660534 49.5558 0.965396 49.1574C1.27026 48.759 1.67674 48.4602 2.18484 48.3108C2.69295 48.1116 3.30267 48.0618 4.01402 48.1614L9.45072 48.8088L9.24748 50.4523L3.96321 49.755C3.35348 49.7052 2.84538 49.8048 2.4389 50.0538C2.03241 50.3526 1.82917 50.7511 1.77836 51.2989C1.72755 51.6973 1.77836 51.9961 1.93079 52.3447C2.08322 52.6435 2.28647 52.8925 2.59133 53.1415C2.84538 53.2909 3.20105 53.4403 3.65834 53.4901Z" fill="#F58A07"/>
<path id="Vector_9" d="M11.3311 42.7832C11.0771 43.5302 10.6706 44.1777 10.1117 44.5761C9.55275 45.0243 8.89221 45.2733 8.18087 45.3729C7.46952 45.4725 6.65656 45.3729 5.84359 45.0741C5.03063 44.7753 4.31928 44.3769 3.81118 43.8788C3.30307 43.3808 2.9474 42.7832 2.79497 42.086C2.64254 41.3888 2.69335 40.6915 2.9474 39.9445C3.15064 39.3469 3.45551 38.8489 3.86199 38.4505C4.26847 38.0521 4.72576 37.7532 5.23387 37.6038C5.74197 37.4544 6.30088 37.4544 6.8598 37.554L6.35169 39.0481C5.94521 38.9983 5.53873 39.0979 5.18306 39.2971C4.82738 39.4963 4.52252 39.8449 4.37009 40.3429C4.21766 40.7911 4.21766 41.1896 4.31928 41.588C4.4209 41.9864 4.67495 42.335 5.03063 42.6836C5.3863 43.0322 5.84359 43.2812 6.45332 43.4804C7.06304 43.6796 7.57114 43.7792 8.07925 43.7294C8.58735 43.6796 8.99383 43.58 9.3495 43.331C9.70518 43.082 9.95923 42.7334 10.1117 42.2852C10.2133 41.9864 10.2641 41.6876 10.2133 41.4386C10.1625 41.1398 10.1117 40.8907 9.95923 40.6915C9.8068 40.4923 9.60356 40.2433 9.3495 40.0939L9.85761 38.5999C10.3657 38.8489 10.7722 39.1477 11.0771 39.5959C11.3819 39.9943 11.5852 40.4923 11.636 41.0402C11.636 41.588 11.5852 42.1856 11.3311 42.7832Z" fill="#F58A07"/>
<path id="Vector_10" d="M16.666 38.1519C16.5136 38.3511 16.412 38.5503 16.2595 38.6997C16.1071 38.8491 16.0055 38.9487 15.9039 39.0483L14.9385 38.0025C15.1417 37.8033 15.3449 37.5543 15.4466 37.3551C15.5482 37.1559 15.599 36.9069 15.5482 36.7077C15.4974 36.4587 15.3449 36.2096 15.0909 35.861L14.6844 35.4128L5.58936 33.7196L6.50394 32.2255L13.3633 33.7196L13.4141 33.62L8.79041 28.4406L9.70499 26.9465L16.2595 34.7654C16.5644 35.114 16.7676 35.5124 16.9201 35.861C17.0725 36.2096 17.1233 36.6081 17.0725 36.9567C17.0217 37.3053 16.8693 37.7535 16.666 38.1519Z" fill="#F58A07"/>
<path id="Vector_11" d="M21.5944 25.9505L20.7814 25.0043L21.0355 19.5261C21.0355 18.9285 21.0863 18.4305 21.0355 18.032C21.0355 17.6336 20.9846 17.2352 20.883 16.9364C20.7814 16.6376 20.629 16.3388 20.4257 16.0898C20.1717 15.791 19.8668 15.6416 19.562 15.542C19.2571 15.4424 18.9014 15.4424 18.5966 15.542C18.2917 15.6416 17.936 15.791 17.682 16.04C17.3771 16.289 17.1739 16.5878 17.0214 16.9364C16.9198 17.2352 16.869 17.5838 16.9706 17.9324C17.0722 18.2811 17.2247 18.5799 17.4787 18.8787L16.2593 19.9743C15.802 19.4763 15.4971 18.9285 15.3955 18.3309C15.2939 17.7332 15.3447 17.1356 15.5987 16.5878C15.8528 15.9902 16.2085 15.4922 16.7674 15.0439C17.3263 14.5957 17.8852 14.2969 18.4949 14.1475C19.1047 13.9981 19.6636 13.9981 20.2225 14.1973C20.7814 14.3467 21.2387 14.6455 21.6452 15.1435C21.95 15.4424 22.1533 15.791 22.3057 16.2392C22.4581 16.6376 22.5598 17.1356 22.5598 17.783C22.5598 18.4305 22.5598 19.1775 22.509 20.1735L22.3565 23.2612L22.4073 23.311L26.2689 19.9743L27.2343 21.0699L21.5944 25.9505Z" fill="#F58A07"/>
<path id="Vector_12" d="M33.0271 17.9323C32.2649 18.3307 31.4519 18.4801 30.6898 18.3805C29.9276 18.2809 29.1655 17.9323 28.4541 17.2849C27.7428 16.6873 27.0823 15.8406 26.5233 14.745C25.9136 13.6494 25.5579 12.7031 25.4563 11.7569C25.3547 10.8605 25.4563 10.0636 25.7612 9.36643C26.1169 8.6692 26.625 8.12138 27.4379 7.72297C28.2001 7.32456 28.9622 7.17515 29.7752 7.27475C30.5882 7.37436 31.2995 7.72297 32.0109 8.32059C32.7222 8.91821 33.3827 9.76484 33.9417 10.8107C34.5514 11.9063 34.9071 12.9023 35.0087 13.7988C35.1611 14.6952 35.0595 15.5418 34.7038 16.1893C34.3481 16.9363 33.7892 17.4841 33.0271 17.9323ZM32.3157 16.6375C32.9763 16.2889 33.3319 15.6912 33.3827 14.7948C33.4335 13.9482 33.0779 12.9023 32.4173 11.6573C31.9601 10.8605 31.5028 10.2131 30.9947 9.71504C30.4865 9.21702 30.0293 8.91821 29.5212 8.81861C29.013 8.719 28.5558 8.76881 28.0985 9.01781C27.4379 9.36643 27.0823 9.96405 27.0314 10.8605C26.9806 11.7071 27.3363 12.7529 27.9968 13.998C28.4541 14.8446 28.9114 15.492 29.4195 15.9402C29.9276 16.4383 30.3849 16.6873 30.893 16.8367C31.3503 16.9363 31.8584 16.8865 32.3157 16.6375Z" fill="#F58A07"/>
<path id="Vector_13" d="M38.9208 14.9443L38.5651 13.7491L41.2072 8.91833C41.5121 8.42032 41.7153 7.9223 41.8678 7.57369C42.0202 7.17528 42.1726 6.82666 42.2234 6.52785C42.2743 6.22904 42.2743 5.88043 42.1726 5.58162C42.071 5.23301 41.9186 4.9342 41.6645 4.73499C41.4105 4.53579 41.1056 4.38638 40.8008 4.33658C40.4451 4.28678 40.0894 4.28678 39.7337 4.38638C39.3273 4.48599 39.0224 4.68519 38.7683 4.8844C38.5143 5.13341 38.3619 5.43222 38.2602 5.73103C38.1586 6.02984 38.2094 6.42825 38.311 6.82666L36.7359 7.27488C36.5327 6.62746 36.5327 5.98004 36.7359 5.43222C36.8884 4.8346 37.244 4.33658 37.7013 3.93817C38.1586 3.53975 38.7175 3.24094 39.4289 3.04174C40.1402 2.84253 40.7499 2.84253 41.3597 2.94213C41.9694 3.04174 42.4775 3.34055 42.9348 3.68916C43.3413 4.08757 43.6461 4.53579 43.8494 5.13341C43.951 5.53182 44.0018 5.93023 43.951 6.37845C43.9002 6.82666 43.7478 7.32468 43.4937 7.8725C43.2397 8.42032 42.884 9.16734 42.4267 10.014L40.8516 12.8527V12.9523L45.831 11.6076L46.2375 13.0021L38.9208 14.9443Z" fill="#F58A07"/>
<path id="Vector_14" d="M52.7414 12.5536C51.8776 12.6034 51.1154 12.4042 50.4549 11.956C49.7944 11.5078 49.2863 10.9102 48.9306 10.0636C48.5749 9.21693 48.3717 8.1711 48.27 6.97586C48.2192 5.78062 48.3209 4.73478 48.6257 3.83835C48.9306 2.94192 49.3879 2.2945 49.9976 1.79648C50.6073 1.29847 51.3695 1.04946 52.2333 0.999658C53.097 0.949856 53.8592 1.14906 54.5197 1.59728C55.1803 2.04549 55.6884 2.64311 56.044 3.48974C56.3997 4.33637 56.6538 5.38221 56.7046 6.57745C56.7554 7.82249 56.6538 8.86832 56.3489 9.71495C56.044 10.5616 55.5867 11.2588 55.0278 11.7568C54.3673 12.2548 53.6559 12.5038 52.7414 12.5536ZM52.6905 11.1094C53.4527 11.0596 54.0624 10.6612 54.4689 9.91416C54.8754 9.16713 55.0278 8.0715 54.977 6.67705C54.9262 5.73082 54.7738 4.98379 54.5705 4.33637C54.3673 3.68895 54.0116 3.24073 53.6559 2.89212C53.2495 2.59331 52.843 2.44391 52.3349 2.44391C51.5727 2.49371 50.963 2.89212 50.5565 3.63915C50.15 4.38617 49.9976 5.48181 50.0484 6.87626C50.0992 7.82249 50.2517 8.61931 50.4549 9.21693C50.6581 9.81455 51.0138 10.3126 51.3695 10.6612C51.7251 11.0098 52.1824 11.1094 52.6905 11.1094Z" fill="#F58A07"/>
<path id="Vector_15" d="M70.9315 8.37028L70.5758 9.76473L65.6472 8.46989L66.0029 7.07544L70.9315 8.37028Z" fill="#F58A07"/>
<path id="Vector_16" d="M76.4192 17.3843L77.0797 16.3384L82.5164 15.0436C83.0754 14.8942 83.5835 14.7448 83.9899 14.6452C84.3964 14.5456 84.7521 14.3464 85.0062 14.197C85.2602 14.0476 85.5143 13.7985 85.6667 13.4997C85.8699 13.2009 85.9715 12.8523 85.9715 12.5535C85.9715 12.2049 85.8699 11.9061 85.7175 11.6571C85.5143 11.3583 85.2602 11.1093 84.9553 10.91C84.5997 10.7108 84.244 10.5614 83.8883 10.5614C83.5327 10.5614 83.2278 10.6112 82.9229 10.7606C82.6181 10.91 82.364 11.1591 82.1608 11.5077L80.7889 10.661C81.1446 10.0634 81.6019 9.66501 82.1608 9.416C82.7197 9.16699 83.2786 9.06739 83.9391 9.11719C84.5489 9.16699 85.1586 9.3662 85.7683 9.76461C86.378 10.163 86.8353 10.6112 87.1402 11.1093C87.4451 11.6571 87.5975 12.2049 87.5975 12.7527C87.5975 13.3005 87.445 13.8483 87.0894 14.3464C86.8861 14.695 86.5813 14.9938 86.2256 15.2428C85.8699 15.4918 85.4126 15.7408 84.8029 15.94C84.1932 16.1392 83.431 16.3384 82.4656 16.5874L79.2646 17.3843L79.2138 17.4341L83.5835 20.1234L82.7705 21.3684L76.4192 17.3843Z" fill="#F58A07"/>
<path id="Vector_17" d="M87.4953 25.801C86.8856 25.2034 86.5299 24.5062 86.3775 23.7591C86.2759 23.0121 86.3775 22.2153 86.784 21.3686C87.1904 20.522 87.8002 19.6754 88.7148 18.8288C89.5785 17.9821 90.4423 17.3347 91.3061 16.9861C92.1699 16.5877 92.9828 16.4881 93.745 16.5877C94.5071 16.6873 95.2185 17.0857 95.8282 17.6833C96.4379 18.2809 96.7936 18.9782 96.946 19.7252C97.0476 20.4722 96.946 21.269 96.5395 22.1157C96.1331 22.9623 95.5233 23.8089 94.6596 24.6556C93.7958 25.5022 92.8812 26.1496 92.0682 26.4982C91.2045 26.8966 90.3915 26.9962 89.6293 26.8966C88.8164 26.797 88.105 26.3986 87.4953 25.801ZM88.5623 24.7552C89.1212 25.303 89.7818 25.4524 90.6455 25.2532C91.5093 25.054 92.4239 24.4065 93.4401 23.4603C94.1006 22.8129 94.6087 22.1655 94.9644 21.5679C95.2693 20.9702 95.4217 20.4224 95.4217 19.9244C95.4217 19.4264 95.2185 19.028 94.8628 18.6296C94.3039 18.0817 93.6434 17.9323 92.7796 18.1315C91.9158 18.3307 91.0012 18.9782 89.985 19.9244C89.3245 20.5718 88.8164 21.2192 88.4607 21.8169C88.1558 22.4145 88.0034 22.9623 88.0034 23.4603C88.0034 24.0081 88.2066 24.4065 88.5623 24.7552Z" fill="#F58A07"/>
<path id="Vector_18" d="M92.0686 30.5317L93.1356 29.8843L98.5723 31.0297C99.182 31.1293 99.6901 31.2289 100.097 31.2787C100.503 31.3285 100.91 31.3285 101.214 31.2787C101.519 31.2289 101.824 31.1293 102.129 30.9301C102.434 30.7309 102.688 30.4819 102.84 30.1831C102.993 29.8843 103.044 29.5855 102.993 29.2368C102.942 28.8882 102.84 28.5894 102.637 28.2408C102.434 27.8922 102.18 27.6432 101.875 27.4938C101.57 27.3444 101.265 27.2448 100.91 27.2946C100.554 27.2946 100.198 27.444 99.8934 27.6432L99.0296 26.2487C99.6393 25.9001 100.198 25.7009 100.859 25.7009C101.519 25.7009 102.027 25.8503 102.586 26.1491C103.145 26.448 103.603 26.8962 103.958 27.4938C104.365 28.0914 104.568 28.689 104.619 29.2866C104.67 29.8843 104.568 30.4321 104.314 30.9799C104.06 31.5277 103.653 31.9261 103.145 32.2249C102.79 32.4242 102.383 32.5736 101.977 32.6732C101.57 32.7728 101.011 32.7728 100.401 32.6732C99.7918 32.6234 98.9788 32.474 98.0134 32.2747L94.7615 31.6273L94.7107 31.6771L97.4545 35.9601L96.1842 36.7071L92.0686 30.5317Z" fill="#F58A07"/>
<path id="Vector_19" d="M109.446 39.1973L98.7247 43.1814L98.115 41.5878L107.21 38.2013V38.1515L104.568 36.259L106.092 35.6614L108.836 37.6534L109.446 39.1973Z" fill="#F58A07"/>
<path id="Vector_20" d="M116 52.2455L97.2511 54.138L97.0986 52.6937L115.848 50.8013L116 52.2455Z" fill="#F58A07"/>
<path id="Vector_21" d="M112.037 65.2935L100.655 63.9489L100.859 62.3054L112.24 63.6501L112.037 65.2935Z" fill="#F58A07"/>
<path id="Vector_22" d="M99.1312 70.1242C99.3344 69.3771 99.7409 68.7297 100.249 68.2815C100.757 67.8333 101.418 67.5345 102.129 67.3851C102.84 67.2357 103.653 67.2855 104.517 67.5345C105.381 67.7835 106.092 68.1321 106.651 68.6301C107.21 69.1281 107.566 69.7257 107.769 70.3732C107.972 71.0206 107.921 71.7676 107.718 72.5146C107.515 73.2617 107.108 73.9091 106.6 74.3573C106.092 74.8055 105.432 75.1043 104.72 75.2537C104.009 75.4031 103.196 75.3533 102.332 75.1043C101.468 74.8553 100.757 74.5067 100.249 74.0087C99.6901 73.5107 99.3344 72.9131 99.1312 72.2656C98.9279 71.6182 98.9279 70.8712 99.1312 70.1242ZM100.503 70.5226C100.351 71.0206 100.351 71.4688 100.554 71.8672C100.757 72.2656 101.011 72.6142 101.418 72.8633C101.824 73.1621 102.281 73.3613 102.79 73.5107C103.298 73.6601 103.806 73.7099 104.314 73.7099C104.822 73.6601 105.228 73.5605 105.584 73.3115C105.94 73.0625 106.194 72.7138 106.346 72.2158C106.499 71.7178 106.499 71.2696 106.295 70.8712C106.143 70.4728 105.838 70.1242 105.432 69.8253C105.025 69.5265 104.568 69.3273 104.06 69.1779C103.552 69.0285 103.044 68.9787 102.535 68.9787C102.027 69.0285 101.621 69.1281 101.265 69.4269C100.91 69.6759 100.655 70.0246 100.503 70.5226Z" fill="#F58A07"/>
<path id="Vector_23" d="M100.96 79.8855L96.4888 77.495L97.3018 76.0508L104.872 80.0349L104.11 81.4294L102.891 80.7819L102.84 80.8816C103.145 81.28 103.297 81.6784 103.348 82.1764C103.399 82.6744 103.247 83.1724 102.942 83.7701C102.688 84.2681 102.332 84.6665 101.875 84.9155C101.468 85.1645 100.96 85.3139 100.452 85.3139C99.8931 85.3139 99.3342 85.1147 98.7244 84.8159L93.8975 82.276L94.7104 80.8318L99.3342 83.272C99.8931 83.5708 100.401 83.6705 100.858 83.521C101.316 83.4214 101.671 83.1226 101.976 82.6246C102.18 82.276 102.23 81.9772 102.23 81.6286C102.23 81.28 102.129 80.9812 101.926 80.6823C101.671 80.3835 101.367 80.1345 100.96 79.8855Z" fill="#F58A07"/>
<path id="Vector_24" d="M90.0868 86.7578C90.5441 86.2598 91.103 85.9112 91.7127 85.712C92.3224 85.5626 92.983 85.5626 93.6943 85.7618C94.4057 85.961 95.117 86.3594 95.7775 86.957C96.4381 87.5546 96.997 88.202 97.251 88.8495C97.5559 89.4969 97.6575 90.1443 97.5559 90.7917C97.4543 91.4392 97.2002 91.987 96.7429 92.485C96.3873 92.8834 96.0316 93.1324 95.6759 93.2818C95.3202 93.4312 95.0154 93.481 94.7105 93.4312C94.4057 93.4312 94.1516 93.3814 93.9484 93.3316L93.8976 93.3814L97.0986 96.1205L95.9808 97.3655L87.343 89.9949L88.41 88.7997L89.4262 89.6463L89.5279 89.5467C89.4771 89.3475 89.3754 89.0985 89.3246 88.7997C89.2738 88.5009 89.2738 88.202 89.3754 87.8534C89.4771 87.5048 89.7311 87.1562 90.0868 86.7578ZM90.8997 87.953C90.5949 88.3017 90.3916 88.7001 90.3916 89.0985C90.3916 89.4969 90.4933 89.9451 90.6965 90.3435C90.9506 90.7419 91.2554 91.1901 91.7127 91.5388C92.17 91.9372 92.6273 92.1862 93.0846 92.3356C93.5419 92.485 93.9484 92.5348 94.3548 92.4352C94.7613 92.3356 95.117 92.1364 95.4219 91.7878C95.7267 91.4392 95.93 91.0407 95.93 90.5925C95.93 90.1941 95.8283 89.7459 95.6251 89.3475C95.3711 88.9491 95.0662 88.5507 94.6597 88.202C94.2024 87.8534 93.7959 87.5546 93.3386 87.4052C92.8813 87.2558 92.4241 87.206 92.0176 87.2558C91.6111 87.3554 91.2554 87.6044 90.8997 87.953Z" fill="#F58A07"/>
<path id="Vector_25" d="M82.3129 93.9297C82.9734 93.4815 83.634 93.1827 84.3453 93.1329C85.0566 93.0831 85.7172 93.1827 86.3777 93.5313C87.0383 93.8799 87.648 94.3779 88.1561 95.0751C88.6642 95.7724 89.0199 96.4696 89.1723 97.2166C89.3247 97.9138 89.2231 98.6111 88.9691 99.2585C88.715 99.9059 88.2577 100.454 87.5972 100.952C86.9366 101.4 86.2761 101.699 85.5647 101.749C84.8534 101.798 84.1929 101.649 83.5323 101.35C82.8718 101.002 82.2621 100.504 81.754 99.8063C81.2459 99.1091 80.8902 98.4118 80.7886 97.6648C80.687 96.9178 80.7378 96.2704 80.9918 95.623C81.1951 94.9257 81.6523 94.3779 82.3129 93.9297ZM83.1259 95.0253C82.7194 95.3241 82.4653 95.6728 82.3129 96.121C82.1605 96.5692 82.2113 96.9676 82.3637 97.4158C82.5161 97.864 82.7194 98.3122 83.075 98.7605C83.3799 99.2087 83.7864 99.5573 84.1929 99.8063C84.5994 100.055 85.0058 100.205 85.4631 100.255C85.9204 100.304 86.3269 100.155 86.7334 99.8063C87.1399 99.5075 87.4447 99.1589 87.5464 98.7107C87.648 98.2624 87.648 97.864 87.4955 97.366C87.3431 96.9178 87.1399 96.4696 86.7842 96.0214C86.4793 95.5732 86.0729 95.2245 85.6664 94.9755C85.2599 94.7265 84.8534 94.5771 84.3961 94.5771C83.9896 94.5771 83.5831 94.7265 83.1259 95.0253Z" fill="#F58A07"/>
<path id="Vector_26" d="M77.6889 102.745L75.6056 98.163L77.1299 97.4658L80.6867 105.135L79.2132 105.783L78.6543 104.538L78.5526 104.587C78.5526 105.085 78.451 105.534 78.1462 105.932C77.8921 106.331 77.4348 106.679 76.8759 106.928C76.317 107.177 75.8089 107.277 75.3008 107.227C74.7927 107.177 74.3354 106.978 73.9289 106.679C73.5224 106.38 73.1667 105.882 72.8619 105.235L70.6262 100.354L72.1505 99.6571L74.3354 104.338C74.5894 104.886 74.9451 105.285 75.4024 105.434C75.8597 105.633 76.317 105.583 76.8251 105.384C77.1808 105.235 77.4348 105.036 77.638 104.737C77.8413 104.488 77.9429 104.139 77.9937 103.791C77.9937 103.542 77.8921 103.193 77.6889 102.745Z" fill="#F58A07"/>
</g>
</svg>
